<svg id="svg" version="1.1" xmlns="http://www.w3.org/2000/svg" xmlns:xlink="http://www.w3.org/1999/xlink" width="400" height="400" viewBox="0, 0, 400,400"><g id="svgg"><path id="path0" d="M128.670 87.616 C 127.830 88.277,127.040 88.400,123.637 88.400 C 119.867 88.400,119.600 88.453,119.600 89.200 C 119.600 89.933,119.333 90.000,116.400 90.000 C 113.467 90.000,113.200 90.067,113.200 90.800 C 113.200 91.503,112.933 91.600,111.000 91.600 C 109.311 91.600,108.800 91.739,108.800 92.200 C 108.800 92.530,108.530 92.823,108.200 92.850 C 107.870 92.877,107.240 92.945,106.800 93.000 C 106.360 93.055,105.539 93.123,104.976 93.150 C 104.400 93.178,104.062 93.376,104.202 93.603 C 104.471 94.038,103.951 94.311,102.443 94.529 C 101.917 94.604,101.268 94.967,100.999 95.333 C 100.731 95.700,100.141 96.000,99.689 96.000 C 98.444 96.000,97.600 96.421,97.600 97.043 C 97.600 97.349,97.240 97.623,96.800 97.650 C 95.147 97.753,95.000 97.814,95.000 98.400 C 95.000 98.730,94.604 99.056,94.119 99.125 C 93.634 99.194,93.127 99.599,92.992 100.025 C 92.857 100.451,92.488 100.800,92.173 100.800 C 91.858 100.800,91.600 101.160,91.600 101.600 C 91.600 102.179,91.333 102.400,90.633 102.400 C 89.252 102.400,88.400 102.798,88.400 103.443 C 88.400 103.749,88.040 104.000,87.600 104.000 C 87.067 104.000,86.800 104.267,86.800 104.800 C 86.800 105.333,86.533 105.600,86.000 105.600 C 85.467 105.600,85.200 105.867,85.200 106.400 C 85.200 106.933,84.933 107.200,84.400 107.200 C 83.867 107.200,83.600 107.467,83.600 108.000 C 83.600 108.533,83.333 108.800,82.800 108.800 C 82.356 108.800,82.000 109.067,82.000 109.400 C 82.000 109.730,81.713 110.000,81.363 110.000 C 81.012 110.000,80.631 110.360,80.516 110.800 C 80.401 111.240,80.041 111.600,79.716 111.600 C 79.391 111.600,79.035 111.943,78.926 112.363 C 78.816 112.783,78.383 113.216,77.963 113.326 C 77.543 113.435,77.200 113.812,77.200 114.163 C 77.200 114.513,76.930 114.800,76.600 114.800 C 76.270 114.800,76.000 115.064,76.000 115.386 C 76.000 115.708,75.640 116.165,75.200 116.400 C 74.760 116.635,74.400 117.085,74.400 117.400 C 74.400 117.715,74.040 118.165,73.600 118.400 C 73.076 118.680,72.800 119.238,72.800 120.014 C 72.800 120.933,72.620 121.200,72.000 121.200 C 71.467 121.200,71.200 121.467,71.200 122.000 C 71.200 122.533,70.933 122.800,70.400 122.800 C 69.748 122.800,69.600 123.067,69.600 124.237 C 69.600 125.338,69.413 125.724,68.800 125.884 C 68.206 126.039,68.000 126.430,68.000 127.400 C 68.000 128.370,67.794 128.761,67.200 128.916 C 66.587 129.076,66.400 129.462,66.400 130.563 C 66.400 131.733,66.252 132.000,65.600 132.000 C 64.933 132.000,64.800 132.267,64.800 133.600 C 64.800 134.933,64.667 135.200,64.000 135.200 C 63.342 135.200,63.200 135.467,63.200 136.704 C 63.200 137.763,62.969 138.352,62.418 138.696 C 61.797 139.084,61.613 139.718,61.518 141.795 C 61.453 143.232,61.240 144.390,61.045 144.369 C 60.395 144.300,60.012 145.379,60.006 147.300 C 60.002 148.649,59.839 149.200,59.446 149.200 C 59.010 149.200,58.859 150.339,58.736 154.570 C 58.613 158.767,58.439 160.099,57.936 160.670 C 56.744 162.025,57.041 170.240,58.255 169.489 C 58.445 169.372,58.609 170.204,58.620 171.338 C 58.682 177.788,58.933 181.965,59.248 181.770 C 59.727 181.474,60.056 182.422,60.191 184.492 C 60.345 186.867,60.630 187.817,61.153 187.700 C 61.405 187.644,61.600 188.123,61.600 188.800 L 61.600 190.000 56.200 190.000 C 51.067 190.000,50.800 190.040,50.800 190.800 C 50.800 191.515,46.109 192.059,43.500 191.647 C 43.335 191.621,43.200 191.870,43.200 192.200 C 43.200 192.530,42.885 192.813,42.500 192.830 C 41.076 192.890,39.806 193.235,39.409 193.670 C 39.116 193.990,39.170 194.026,39.600 193.795 C 39.956 193.603,40.064 193.620,39.867 193.836 C 39.683 194.036,39.413 194.213,39.267 194.230 C 37.118 194.471,35.255 194.965,35.429 195.248 C 35.551 195.445,35.324 195.712,34.925 195.841 C 34.526 195.971,33.930 196.178,33.600 196.302 C 33.270 196.426,32.865 196.498,32.700 196.464 C 32.535 196.429,32.445 196.625,32.500 196.900 C 32.556 197.181,32.119 197.455,31.500 197.527 C 30.723 197.616,30.400 197.880,30.400 198.427 C 30.400 199.019,30.120 199.200,29.203 199.200 C 28.440 199.200,27.826 199.490,27.507 200.000 C 27.232 200.440,26.793 200.800,26.531 200.800 C 26.268 200.800,25.940 201.160,25.800 201.600 C 25.620 202.168,25.195 202.400,24.336 202.400 C 23.462 202.400,23.067 202.622,22.916 203.200 C 22.800 203.643,22.370 204.000,21.953 204.000 C 21.467 204.000,21.200 204.283,21.200 204.800 C 21.200 205.333,20.933 205.600,20.400 205.600 C 19.867 205.600,19.600 205.867,19.600 206.400 C 19.600 206.933,19.333 207.200,18.800 207.200 C 18.267 207.200,18.000 207.467,18.000 208.000 C 18.000 208.533,17.733 208.800,17.200 208.800 C 16.756 208.800,16.400 209.067,16.400 209.400 C 16.400 209.730,16.159 210.000,15.864 210.000 C 15.570 210.000,15.119 210.460,14.863 211.023 C 14.606 211.585,14.216 211.934,13.995 211.797 C 13.775 211.661,13.474 211.862,13.328 212.244 C 13.181 212.626,12.732 213.268,12.331 213.669 C 11.929 214.071,11.600 214.829,11.600 215.353 C 11.600 215.970,11.318 216.381,10.800 216.516 C 10.360 216.631,10.000 217.012,10.000 217.363 C 10.000 217.713,9.730 218.000,9.400 218.000 C 8.967 218.000,8.800 218.444,8.800 219.600 C 8.800 220.933,8.667 221.200,8.000 221.200 C 7.467 221.200,7.200 221.467,7.200 222.000 C 7.200 222.533,6.933 222.800,6.400 222.800 C 5.699 222.800,5.600 223.067,5.600 224.953 C 5.600 226.770,5.475 227.139,4.800 227.316 C 4.187 227.476,4.000 227.862,4.000 228.963 C 4.000 230.133,3.852 230.400,3.200 230.400 C 2.489 230.400,2.400 230.667,2.400 232.800 C 2.400 234.933,2.311 235.200,1.600 235.200 C 0.882 235.200,0.800 235.467,0.800 237.800 C 0.800 239.267,0.626 240.400,0.400 240.400 C 0.141 240.400,0.000 245.400,0.000 254.600 C 0.000 265.690,0.110 268.801,0.500 268.806 C 0.866 268.811,0.854 268.905,0.455 269.158 C 0.114 269.374,0.071 269.559,0.339 269.652 C 0.583 269.736,0.800 271.055,0.841 272.700 C 0.903 275.235,1.006 275.600,1.656 275.600 C 2.284 275.600,2.400 275.918,2.400 277.637 C 2.400 279.338,2.532 279.709,3.200 279.884 C 3.917 280.072,4.308 281.649,4.047 283.300 C 4.021 283.465,4.360 283.600,4.800 283.600 C 5.530 283.600,5.903 284.879,5.647 286.500 C 5.621 286.665,5.735 286.779,5.900 286.753 C 6.901 286.595,7.200 286.928,7.200 288.200 C 7.200 289.472,7.499 289.805,8.500 289.647 C 8.665 289.621,8.800 289.960,8.800 290.400 C 8.800 290.844,9.067 291.200,9.400 291.200 C 9.941 291.200,10.178 291.675,10.047 292.500 C 10.021 292.665,10.360 292.800,10.800 292.800 C 11.563 292.800,11.835 293.569,11.623 295.131 C 11.583 295.423,11.905 295.755,12.338 295.868 C 12.772 295.981,13.216 296.417,13.326 296.837 C 13.435 297.257,13.812 297.600,14.163 297.600 C 14.736 297.600,14.980 298.062,14.847 298.900 C 14.821 299.065,15.160 299.200,15.600 299.200 C 16.133 299.200,16.400 299.467,16.400 300.000 C 16.400 300.533,16.667 300.800,17.200 300.800 C 17.733 300.800,18.000 301.067,18.000 301.600 C 18.000 302.117,18.267 302.400,18.753 302.400 C 19.170 302.400,19.600 302.757,19.716 303.200 C 19.831 303.640,20.212 304.000,20.563 304.000 C 20.913 304.000,21.200 304.270,21.200 304.600 C 21.200 304.930,21.448 305.200,21.751 305.200 C 22.054 305.200,22.549 305.558,22.851 305.997 C 23.153 306.435,23.830 306.855,24.357 306.930 C 24.883 307.005,25.513 307.333,25.757 307.658 C 26.000 307.983,26.517 308.368,26.904 308.514 C 27.291 308.659,27.561 309.008,27.504 309.289 C 27.438 309.615,27.942 309.845,28.900 309.924 C 30.075 310.021,30.400 310.216,30.400 310.824 C 30.400 311.333,30.675 311.600,31.200 311.600 C 31.733 311.600,32.000 311.867,32.000 312.400 C 32.000 313.067,32.267 313.200,33.600 313.200 C 34.918 313.200,35.200 313.337,35.200 313.977 C 35.200 314.597,35.525 314.779,36.807 314.877 C 37.691 314.945,38.398 315.173,38.377 315.384 C 38.319 315.993,39.616 316.341,42.053 316.372 C 43.957 316.396,44.339 316.524,44.516 317.200 C 44.702 317.910,45.062 318.000,47.716 318.000 C 50.370 318.000,50.730 318.090,50.916 318.800 C 51.123 319.590,51.462 319.600,79.135 319.600 L 107.146 319.600 107.922 318.500 C 108.553 317.605,117.199 300.862,120.150 294.819 C 121.282 292.501,122.670 292.028,123.436 293.699 C 123.764 294.415,124.458 295.720,124.978 296.600 C 125.498 297.480,128.280 302.902,131.160 308.650 C 136.103 318.512,136.468 319.114,137.649 319.350 C 139.248 319.670,227.898 319.680,229.495 319.361 C 230.706 319.119,230.911 318.785,233.406 313.000 C 234.009 311.600,235.247 308.791,236.447 306.100 C 238.006 302.603,245.609 287.438,247.427 284.200 C 248.415 282.440,249.521 280.415,249.886 279.700 C 250.926 277.659,251.202 278.026,257.064 289.200 C 257.815 290.630,258.597 292.070,258.803 292.400 C 259.393 293.347,264.296 303.792,266.689 309.200 C 267.030 309.970,267.628 311.320,268.019 312.200 C 268.409 313.080,269.182 314.880,269.736 316.200 C 271.257 319.825,269.322 319.588,297.400 319.589 C 322.582 319.589,324.000 319.534,324.000 318.553 C 324.000 318.076,328.022 317.663,329.734 317.964 C 329.918 317.996,330.164 317.658,330.281 317.211 C 330.453 316.555,330.822 316.400,332.214 316.400 C 334.316 316.400,335.200 316.091,335.200 315.357 C 335.200 314.989,335.666 314.800,336.573 314.800 C 337.595 314.800,338.011 314.595,338.200 314.000 C 338.438 313.250,339.972 312.911,341.931 313.177 C 342.223 313.217,342.559 312.878,342.678 312.425 C 342.817 311.893,343.221 311.600,343.814 311.600 C 345.151 311.600,346.000 311.195,346.000 310.557 C 346.000 310.251,346.360 310.000,346.800 310.000 C 347.333 310.000,347.600 309.733,347.600 309.200 C 347.600 308.533,347.867 308.400,349.200 308.400 C 350.080 308.400,350.779 308.265,350.753 308.100 C 350.646 307.425,350.818 306.803,351.100 306.847 C 351.907 306.975,352.400 306.747,352.400 306.247 C 352.400 305.942,352.760 305.599,353.200 305.484 C 353.640 305.369,354.000 305.009,354.000 304.684 C 354.000 304.359,354.360 303.999,354.800 303.884 C 355.240 303.769,355.600 303.388,355.600 303.037 C 355.600 302.592,355.972 302.400,356.837 302.400 C 357.719 302.400,358.132 302.180,358.274 301.637 C 358.384 301.217,358.817 300.784,359.237 300.674 C 359.657 300.565,360.000 300.188,360.000 299.837 C 360.000 299.467,360.335 299.200,360.800 299.200 C 361.324 299.200,361.600 298.933,361.600 298.427 C 361.600 298.002,361.960 297.540,362.400 297.400 C 362.840 297.260,363.200 296.909,363.200 296.620 C 363.200 296.330,363.565 295.998,364.011 295.881 C 364.458 295.764,364.789 295.518,364.748 295.334 C 364.615 294.742,365.273 293.598,365.622 293.813 C 365.808 293.928,366.079 293.387,366.224 292.611 C 366.416 291.588,366.697 291.200,367.245 291.200 C 367.718 291.200,368.000 290.919,368.000 290.447 C 368.000 290.026,368.359 289.600,368.811 289.481 C 369.258 289.364,369.596 289.118,369.564 288.934 C 369.377 287.872,369.675 286.800,370.157 286.800 C 370.795 286.800,371.200 285.951,371.200 284.614 C 371.200 284.030,371.492 283.617,372.000 283.484 C 372.613 283.324,372.800 282.938,372.800 281.837 C 372.800 280.856,372.982 280.400,373.373 280.400 C 373.912 280.400,374.502 279.296,374.366 278.541 C 374.214 277.693,374.447 277.200,375.000 277.200 C 375.433 277.200,375.600 276.756,375.600 275.600 C 375.600 274.267,375.733 274.000,376.400 274.000 C 377.103 274.000,377.200 273.733,377.200 271.800 C 377.200 269.867,377.297 269.600,378.000 269.600 C 378.733 269.600,378.800 269.333,378.800 266.400 C 378.800 263.467,378.867 263.200,379.600 263.200 C 380.671 263.200,380.874 234.379,379.813 232.976 C 379.490 232.549,379.188 232.380,379.142 232.600 C 379.096 232.820,378.956 231.740,378.829 230.200 C 378.656 228.080,378.454 227.400,378.000 227.400 C 377.550 227.400,377.370 226.824,377.280 225.100 C 377.177 223.127,377.049 222.800,376.380 222.800 C 375.693 222.800,375.600 222.513,375.600 220.400 C 375.600 218.615,375.457 218.000,375.043 218.000 C 374.429 218.000,374.000 217.159,374.000 215.955 C 374.000 215.526,373.750 215.079,373.445 214.962 C 373.140 214.845,372.779 214.195,372.644 213.518 C 372.508 212.840,372.083 212.056,371.699 211.775 C 371.314 211.494,370.996 211.025,370.991 210.732 C 370.986 210.440,370.671 210.253,370.291 210.318 C 369.636 210.429,369.351 209.391,369.570 207.700 C 369.606 207.425,369.267 207.200,368.818 207.200 C 368.267 207.200,368.000 206.939,368.000 206.400 C 368.000 205.867,367.733 205.600,367.200 205.600 C 366.470 205.600,366.097 204.321,366.353 202.700 C 366.379 202.535,366.040 202.400,365.600 202.400 C 365.067 202.400,364.800 202.133,364.800 201.600 C 364.800 201.067,364.533 200.800,364.000 200.800 C 363.467 200.800,363.200 200.533,363.200 200.000 C 363.200 199.467,362.933 199.200,362.400 199.200 C 361.935 199.200,361.600 198.933,361.600 198.563 C 361.600 198.212,361.240 197.831,360.800 197.716 C 360.357 197.600,360.000 197.170,360.000 196.753 C 360.000 196.267,359.717 196.000,359.200 196.000 C 358.667 196.000,358.400 195.733,358.400 195.200 C 358.400 194.760,358.170 194.400,357.889 194.400 C 357.608 194.400,356.868 193.815,356.244 193.100 C 355.620 192.385,354.725 191.702,354.255 191.582 C 353.785 191.462,353.400 191.102,353.400 190.782 C 353.400 190.418,352.914 190.153,352.100 190.075 C 351.284 189.996,350.800 189.732,350.800 189.365 C 350.800 189.043,350.375 188.618,349.855 188.421 C 349.335 188.223,348.797 187.770,348.661 187.413 C 348.449 186.862,347.971 186.805,345.461 187.033 C 343.439 187.216,342.422 187.159,342.231 186.850 C 342.078 186.603,341.628 186.400,341.230 186.400 C 340.833 186.400,340.050 186.040,339.491 185.600 C 338.931 185.160,338.142 184.799,337.737 184.797 C 337.332 184.796,336.460 184.437,335.800 184.000 C 335.140 183.563,334.240 183.198,333.800 183.189 C 333.360 183.180,332.280 182.825,331.400 182.400 C 330.520 181.975,329.350 181.620,328.800 181.611 C 328.250 181.602,327.260 181.313,326.600 180.968 C 325.940 180.623,324.092 180.194,322.493 180.014 C 320.895 179.834,319.292 179.442,318.932 179.143 C 318.027 178.393,302.233 178.372,300.903 179.120 C 297.287 181.154,292.288 179.948,291.798 176.922 C 291.663 176.085,291.293 174.922,290.976 174.338 C 290.659 173.754,290.397 172.854,290.394 172.338 C 290.391 171.822,290.128 170.950,289.810 170.400 C 289.492 169.850,289.116 169.130,288.975 168.800 C 286.822 163.761,284.227 159.198,282.300 157.063 C 281.475 156.148,280.800 155.203,280.800 154.962 C 280.800 154.721,280.440 154.198,280.000 153.800 C 279.560 153.402,279.200 152.834,279.200 152.538 C 279.200 152.242,279.006 152.000,278.769 152.000 C 278.531 152.000,277.648 151.325,276.805 150.500 C 274.897 148.632,271.720 145.923,270.853 145.426 C 270.494 145.220,269.962 144.815,269.671 144.526 C 269.381 144.237,268.961 144.000,268.739 144.000 C 268.516 144.000,267.584 143.392,266.667 142.649 C 265.750 141.906,264.550 141.164,264.000 141.001 C 263.450 140.839,262.730 140.477,262.400 140.197 C 262.070 139.918,261.227 139.567,260.528 139.419 C 259.828 139.270,259.041 138.890,258.779 138.574 C 258.517 138.258,258.006 138.000,257.645 138.000 C 257.284 138.000,256.316 137.640,255.496 137.200 C 254.675 136.760,253.327 136.396,252.501 136.391 C 251.676 136.386,250.279 136.055,249.398 135.654 C 247.976 135.009,239.745 134.191,235.600 134.284 C 228.485 134.443,222.855 134.997,221.606 135.660 C 220.839 136.067,219.683 136.400,219.037 136.400 C 218.391 136.400,217.541 136.691,217.148 137.047 C 216.754 137.403,215.570 137.787,214.516 137.900 C 213.462 138.012,212.386 138.274,212.124 138.482 C 211.351 139.093,209.250 137.272,208.963 135.742 C 208.827 135.020,208.465 134.220,208.158 133.965 C 207.851 133.710,207.600 133.188,207.600 132.805 C 207.600 132.422,207.240 131.650,206.800 131.091 C 206.360 130.531,206.000 129.887,206.000 129.658 C 206.000 128.931,204.108 125.651,202.527 123.638 C 201.687 122.568,200.730 121.291,200.400 120.800 C 198.574 118.080,195.472 114.584,191.534 110.807 C 187.170 106.621,187.094 106.517,186.898 104.475 C 186.740 102.838,186.550 102.400,185.996 102.400 C 185.609 102.400,185.199 102.040,185.084 101.600 C 184.925 100.994,184.538 100.800,183.484 100.800 C 182.430 100.800,182.043 100.606,181.884 100.000 C 181.769 99.560,181.400 99.200,181.064 99.200 C 180.729 99.200,180.338 98.835,180.197 98.389 C 180.055 97.944,179.728 97.605,179.470 97.637 C 177.928 97.827,177.200 97.553,177.200 96.782 C 177.200 96.333,176.975 95.994,176.700 96.030 C 175.251 96.218,174.000 95.946,174.000 95.443 C 174.000 94.831,173.159 94.400,171.967 94.400 C 171.545 94.400,171.200 94.132,171.200 93.805 C 171.200 93.421,170.640 93.120,169.625 92.958 C 168.758 92.819,167.954 92.457,167.837 92.153 C 167.692 91.775,166.926 91.600,165.413 91.600 C 163.467 91.600,163.200 91.504,163.200 90.800 C 163.200 90.067,162.933 90.000,160.000 90.000 C 157.067 90.000,156.800 89.933,156.800 89.200 C 156.800 88.447,156.533 88.400,152.247 88.400 C 148.061 88.400,147.677 88.337,147.488 87.616 C 147.293 86.868,146.886 86.833,138.475 86.833 C 130.333 86.833,129.591 86.892,128.670 87.616 M185.218 213.800 C 190.107 222.997,191.627 225.915,191.990 226.800 C 192.215 227.350,192.580 228.070,192.801 228.400 C 193.021 228.730,193.387 229.450,193.614 230.000 C 193.840 230.550,194.640 232.260,195.392 233.800 C 197.364 237.844,200.000 243.609,200.000 243.880 C 200.000 244.008,200.338 244.852,200.752 245.756 C 201.166 246.660,201.904 248.390,202.393 249.600 C 202.882 250.810,203.528 252.340,203.828 253.000 C 206.048 257.881,209.203 269.449,209.949 275.439 C 211.073 284.467,206.355 295.087,199.063 299.941 C 195.791 302.119,195.341 302.363,192.800 303.333 C 172.425 311.113,151.517 292.408,156.883 271.200 C 157.245 269.770,157.725 267.790,157.951 266.800 C 159.017 262.125,160.808 256.519,161.805 254.738 C 162.132 254.154,162.400 253.454,162.400 253.182 C 162.400 252.910,162.738 251.948,163.152 251.044 C 163.566 250.140,164.304 248.410,164.794 247.200 C 165.683 245.001,166.513 243.098,167.980 239.900 C 168.408 238.965,169.499 236.580,170.403 234.600 C 171.307 232.620,172.199 230.730,172.386 230.400 C 172.572 230.070,173.945 227.370,175.436 224.400 C 182.595 210.149,183.028 209.680,185.218 213.800 " stroke="none" fill="#a4d4f4" fill-rule="evenodd"></path><path id="path1" d="M248.500 12.012 C 248.005 12.211,247.600 12.560,247.600 12.787 C 247.600 13.014,247.096 13.200,246.480 13.200 C 245.072 13.200,244.400 13.857,244.400 15.233 C 244.400 15.970,244.149 16.372,243.600 16.516 C 242.214 16.878,242.407 38.400,243.796 38.400 C 244.077 38.400,244.401 38.760,244.516 39.200 C 244.631 39.640,245.012 40.000,245.363 40.000 C 245.713 40.000,246.000 40.254,246.000 40.565 C 246.000 40.912,246.616 41.234,247.600 41.400 C 248.584 41.566,249.200 41.888,249.200 42.235 C 249.200 42.627,249.689 42.800,250.800 42.800 C 251.891 42.800,252.400 42.625,252.400 42.250 C 252.400 41.707,254.044 41.200,255.805 41.200 C 256.524 41.200,256.765 40.910,256.974 39.800 C 257.131 38.962,257.470 38.400,257.818 38.400 C 258.878 38.400,258.665 15.370,257.600 14.800 C 257.160 14.565,256.800 14.108,256.800 13.786 C 256.800 13.391,256.375 13.200,255.496 13.200 C 254.626 13.200,254.026 12.934,253.693 12.400 C 253.146 11.525,250.251 11.309,248.500 12.012 M355.600 46.800 C 355.600 47.333,355.333 47.600,354.800 47.600 C 354.267 47.600,354.000 47.867,354.000 48.400 C 354.000 48.933,353.733 49.200,353.200 49.200 C 352.667 49.200,352.400 49.467,352.400 50.000 C 352.400 50.533,352.133 50.800,351.600 50.800 C 351.067 50.800,350.800 51.067,350.800 51.600 C 350.800 52.133,350.533 52.400,350.000 52.400 C 349.467 52.400,349.200 52.667,349.200 53.200 C 349.200 53.733,348.933 54.000,348.400 54.000 C 347.867 54.000,347.600 54.267,347.600 54.800 C 347.600 55.333,347.333 55.600,346.800 55.600 C 346.267 55.600,346.000 55.867,346.000 56.400 C 346.000 56.917,345.733 57.200,345.247 57.200 C 344.830 57.200,344.400 57.557,344.284 58.000 C 344.169 58.440,343.788 58.800,343.437 58.800 C 343.087 58.800,342.800 59.070,342.800 59.400 C 342.800 59.730,342.530 60.000,342.200 60.000 C 341.867 60.000,341.600 60.356,341.600 60.800 C 341.600 61.333,341.333 61.600,340.800 61.600 C 340.267 61.600,340.000 61.867,340.000 62.400 C 340.000 62.933,339.733 63.200,339.200 63.200 C 338.444 63.200,338.400 63.467,338.400 68.000 C 338.400 72.434,338.457 72.800,339.153 72.800 C 339.570 72.800,340.000 73.157,340.116 73.600 C 340.231 74.040,340.612 74.400,340.963 74.400 C 341.313 74.400,341.600 74.670,341.600 75.000 C 341.600 76.061,350.637 75.867,350.916 74.800 C 351.031 74.360,351.412 74.000,351.763 74.000 C 352.113 74.000,352.400 73.730,352.400 73.400 C 352.400 73.070,352.687 72.800,353.037 72.800 C 353.388 72.800,353.765 72.457,353.874 72.037 C 353.984 71.617,354.417 71.184,354.837 71.074 C 355.257 70.965,355.600 70.588,355.600 70.237 C 355.600 69.887,355.858 69.600,356.173 69.600 C 356.488 69.600,356.860 69.240,357.000 68.800 C 357.140 68.360,357.512 68.000,357.827 68.000 C 358.142 68.000,358.400 67.640,358.400 67.200 C 358.400 66.667,358.667 66.400,359.200 66.400 C 359.733 66.400,360.000 66.133,360.000 65.600 C 360.000 65.067,360.267 64.800,360.800 64.800 C 361.333 64.800,361.600 64.533,361.600 64.000 C 361.600 63.467,361.867 63.200,362.400 63.200 C 362.933 63.200,363.200 62.933,363.200 62.400 C 363.200 61.867,363.467 61.600,364.000 61.600 C 364.533 61.600,364.800 61.333,364.800 60.800 C 364.800 60.267,365.067 60.000,365.600 60.000 C 366.117 60.000,366.400 59.733,366.400 59.247 C 366.400 58.830,366.757 58.400,367.200 58.284 C 367.926 58.094,368.000 57.738,368.000 54.437 C 368.000 51.067,367.941 50.800,367.200 50.800 C 366.667 50.800,366.400 50.533,366.400 50.000 C 366.400 49.467,366.133 49.200,365.600 49.200 C 365.067 49.200,364.800 48.933,364.800 48.400 C 364.800 47.867,364.533 47.600,364.000 47.600 C 363.467 47.600,363.200 47.333,363.200 46.800 C 363.200 46.056,362.933 46.000,359.400 46.000 C 355.867 46.000,355.600 46.056,355.600 46.800 M248.500 60.412 C 248.005 60.611,247.600 60.960,247.600 61.187 C 247.600 61.434,246.396 61.600,244.600 61.600 C 241.867 61.600,241.600 61.671,241.600 62.400 C 241.600 63.130,241.333 63.200,238.563 63.200 C 235.862 63.200,235.502 63.289,235.316 64.000 C 235.152 64.627,234.770 64.800,233.553 64.800 C 232.267 64.800,232.000 64.937,232.000 65.600 C 232.000 66.305,231.733 66.400,229.763 66.400 C 227.862 66.400,227.494 66.520,227.316 67.200 C 227.159 67.801,226.770 68.000,225.753 68.000 C 224.667 68.000,224.400 68.158,224.400 68.800 C 224.400 69.467,224.133 69.600,222.800 69.600 C 221.467 69.600,221.200 69.733,221.200 70.400 C 221.200 71.067,220.933 71.200,219.600 71.200 C 218.267 71.200,218.000 71.333,218.000 72.000 C 218.000 72.533,217.733 72.800,217.200 72.800 C 216.667 72.800,216.400 73.067,216.400 73.600 C 216.400 74.267,216.133 74.400,214.800 74.400 C 213.678 74.400,213.200 74.571,213.200 74.973 C 213.200 75.288,212.840 75.660,212.400 75.800 C 211.960 75.940,211.600 76.292,211.600 76.582 C 211.600 76.873,210.970 77.229,210.200 77.374 C 209.362 77.531,208.800 77.870,208.800 78.218 C 208.800 78.538,208.440 78.800,208.000 78.800 C 207.467 78.800,207.200 79.067,207.200 79.600 C 207.200 80.133,206.933 80.400,206.400 80.400 C 205.867 80.400,205.600 80.667,205.600 81.200 C 205.600 81.733,205.333 82.000,204.800 82.000 C 204.267 82.000,204.000 82.267,204.000 82.800 C 204.000 83.333,203.733 83.600,203.200 83.600 C 202.667 83.600,202.400 83.867,202.400 84.400 C 202.400 84.933,202.133 85.200,201.600 85.200 C 201.067 85.200,200.800 85.467,200.800 86.000 C 200.800 86.533,200.533 86.800,200.000 86.800 C 199.467 86.800,199.200 87.067,199.200 87.600 C 199.200 88.133,198.933 88.400,198.400 88.400 C 197.867 88.400,197.600 88.667,197.600 89.200 C 197.600 89.733,197.333 90.000,196.800 90.000 C 196.267 90.000,196.000 90.267,196.000 90.800 C 196.000 91.333,195.733 91.600,195.200 91.600 C 194.667 91.600,194.400 91.867,194.400 92.400 C 194.400 92.840,194.138 93.200,193.818 93.200 C 193.470 93.200,193.131 93.762,192.974 94.600 C 192.823 95.402,192.474 96.000,192.155 96.000 C 191.850 96.000,191.600 96.360,191.600 96.800 C 191.600 97.333,191.333 97.600,190.800 97.600 C 190.133 97.600,190.000 97.867,190.000 99.200 C 190.000 100.533,189.867 100.800,189.200 100.800 C 188.667 100.800,188.400 101.067,188.400 101.600 C 188.400 102.133,188.133 102.400,187.600 102.400 C 187.067 102.400,186.800 102.667,186.800 103.200 C 186.800 103.640,186.984 104.000,187.210 104.000 C 187.435 104.000,187.787 104.440,187.992 104.978 C 188.196 105.516,189.100 106.641,190.000 107.478 C 195.851 112.918,202.000 119.657,202.000 120.628 C 202.000 120.788,202.818 121.912,203.817 123.126 C 205.428 125.083,206.253 126.588,209.244 133.026 C 209.660 133.921,210.000 134.834,210.000 135.057 C 210.000 136.836,212.708 137.577,214.904 136.400 C 215.725 135.960,216.803 135.594,217.299 135.586 C 217.794 135.579,218.920 135.225,219.800 134.800 C 220.680 134.375,221.965 134.021,222.656 134.014 C 223.347 134.006,225.417 133.700,227.256 133.334 C 231.116 132.566,241.373 132.469,244.600 133.171 C 245.700 133.410,247.615 133.785,248.855 134.004 C 250.095 134.223,251.754 134.672,252.542 135.001 C 253.330 135.331,254.365 135.600,254.843 135.600 C 255.321 135.600,256.542 135.980,257.556 136.443 C 258.570 136.907,260.120 137.603,261.000 137.989 C 264.262 139.420,266.467 140.619,267.087 141.300 C 267.437 141.685,267.868 142.000,268.044 142.000 C 270.756 142.000,287.600 159.568,287.600 162.397 C 287.600 162.595,288.050 163.604,288.600 164.638 C 289.150 165.673,289.600 166.740,289.600 167.011 C 289.600 167.281,289.851 167.710,290.158 167.965 C 290.465 168.220,290.841 169.097,290.994 169.914 C 291.147 170.731,291.464 171.632,291.698 171.916 C 291.933 172.200,292.270 173.351,292.447 174.474 C 292.914 177.425,294.021 178.472,296.374 178.187 C 304.785 177.169,319.525 177.362,322.600 178.531 C 323.480 178.865,325.100 179.257,326.200 179.401 C 327.300 179.545,328.560 179.890,329.000 180.169 C 329.440 180.447,330.588 180.799,331.551 180.950 C 332.514 181.102,333.679 181.490,334.140 181.813 C 334.601 182.136,335.226 182.400,335.528 182.400 C 335.831 182.400,337.558 183.113,339.366 183.984 C 342.831 185.653,346.000 186.450,346.000 185.651 C 346.000 185.403,346.360 185.200,346.800 185.200 C 347.459 185.200,347.600 184.933,347.600 183.689 C 347.600 182.673,347.862 181.953,348.400 181.493 C 348.975 181.001,349.200 180.313,349.200 179.051 C 349.200 177.630,349.353 177.253,350.000 177.084 C 350.704 176.900,350.800 176.538,350.800 174.084 C 350.800 171.630,350.896 171.268,351.600 171.084 C 352.329 170.893,352.400 170.538,352.400 167.084 C 352.400 163.630,352.471 163.275,353.200 163.084 C 353.980 162.880,354.000 162.538,354.000 149.200 C 354.000 135.862,353.980 135.520,353.200 135.316 C 352.472 135.126,352.400 134.770,352.400 131.380 C 352.400 128.005,352.325 127.630,351.600 127.400 C 350.900 127.178,350.800 126.795,350.800 124.336 C 350.800 121.862,350.704 121.500,350.000 121.316 C 349.353 121.147,349.200 120.770,349.200 119.349 C 349.200 118.087,348.975 117.399,348.400 116.907 C 347.862 116.447,347.600 115.727,347.600 114.711 C 347.600 113.467,347.459 113.200,346.800 113.200 C 346.148 113.200,346.000 112.933,346.000 111.763 C 346.000 110.662,345.813 110.276,345.200 110.116 C 344.599 109.959,344.400 109.570,344.400 108.553 C 344.400 107.467,344.242 107.200,343.600 107.200 C 342.937 107.200,342.800 106.933,342.800 105.647 C 342.800 104.430,342.627 104.048,342.000 103.884 C 341.387 103.724,341.200 103.338,341.200 102.237 C 341.200 101.280,341.015 100.800,340.647 100.800 C 340.342 100.800,339.999 100.440,339.884 100.000 C 339.769 99.560,339.388 99.200,339.037 99.200 C 338.599 99.200,338.400 98.833,338.400 98.023 C 338.400 97.344,338.093 96.624,337.674 96.323 C 337.274 96.035,336.830 95.485,336.686 95.100 C 336.543 94.715,336.170 94.400,335.859 94.400 C 335.548 94.400,335.199 94.040,335.084 93.600 C 334.969 93.160,334.588 92.800,334.237 92.800 C 333.887 92.800,333.600 92.530,333.600 92.200 C 333.600 91.867,333.244 91.600,332.800 91.600 C 332.148 91.600,332.000 91.333,332.000 90.163 C 332.000 89.062,331.813 88.676,331.200 88.516 C 330.757 88.400,330.400 87.970,330.400 87.553 C 330.400 87.067,330.117 86.800,329.600 86.800 C 329.067 86.800,328.800 86.533,328.800 86.000 C 328.800 85.467,328.533 85.200,328.000 85.200 C 327.467 85.200,327.200 84.933,327.200 84.400 C 327.200 83.867,326.933 83.600,326.400 83.600 C 325.867 83.600,325.600 83.333,325.600 82.800 C 325.600 82.158,325.333 82.000,324.247 82.000 C 323.230 82.000,322.841 81.801,322.684 81.200 C 322.569 80.760,322.188 80.400,321.837 80.400 C 321.487 80.400,321.200 80.113,321.200 79.763 C 321.200 79.412,320.840 79.031,320.400 78.916 C 319.960 78.801,319.600 78.441,319.600 78.116 C 319.600 77.791,319.240 77.431,318.800 77.316 C 318.360 77.201,318.000 76.874,318.000 76.589 C 318.000 76.296,317.304 75.953,316.400 75.800 C 315.416 75.634,314.800 75.312,314.800 74.965 C 314.800 74.654,314.440 74.400,314.000 74.400 C 313.467 74.400,313.200 74.133,313.200 73.600 C 313.200 72.933,312.933 72.800,311.600 72.800 C 310.267 72.800,310.000 72.667,310.000 72.000 C 310.000 71.358,309.733 71.200,308.647 71.200 C 307.630 71.200,307.241 71.001,307.084 70.400 C 306.924 69.787,306.538 69.600,305.437 69.600 C 304.267 69.600,304.000 69.452,304.000 68.800 C 304.000 68.133,303.733 68.000,302.400 68.000 C 301.067 68.000,300.800 67.867,300.800 67.200 C 300.800 66.533,300.533 66.400,299.200 66.400 C 297.867 66.400,297.600 66.267,297.600 65.600 C 297.600 64.889,297.333 64.800,295.200 64.800 C 293.067 64.800,292.800 64.711,292.800 64.000 C 292.800 63.301,292.533 63.200,290.696 63.200 C 289.026 63.200,288.490 63.035,288.093 62.400 C 287.653 61.696,287.160 61.600,283.997 61.600 C 281.189 61.600,280.400 61.478,280.400 61.043 C 280.400 60.736,280.115 60.376,279.767 60.243 C 278.755 59.854,249.493 60.013,248.500 60.412 M374.400 142.173 C 374.400 142.488,374.040 142.860,373.600 143.000 C 373.005 143.189,372.800 143.605,372.800 144.627 C 372.800 145.733,372.645 146.000,372.000 146.000 C 371.267 146.000,371.200 146.267,371.200 149.200 C 371.200 152.133,371.267 152.400,372.000 152.400 C 372.652 152.400,372.800 152.667,372.800 153.837 C 372.800 154.938,372.987 155.324,373.600 155.484 C 374.040 155.599,374.400 155.920,374.400 156.197 C 374.400 157.569,397.126 157.769,397.484 156.400 C 397.600 155.957,398.030 155.600,398.447 155.600 C 398.933 155.600,399.200 155.317,399.200 154.800 C 399.200 154.360,399.380 154.000,399.600 154.000 C 399.844 154.000,400.000 152.133,400.000 149.200 C 400.000 146.560,399.841 144.400,399.647 144.400 C 399.452 144.400,399.199 144.040,399.084 143.600 C 398.969 143.160,398.588 142.800,398.237 142.800 C 397.887 142.800,397.600 142.530,397.600 142.200 C 397.600 141.680,396.044 141.600,386.000 141.600 C 376.198 141.600,374.400 141.689,374.400 142.173 " stroke="none" fill="#fbd324" fill-rule="evenodd"></path><path id="path2" d="M58.514 156.600 C 58.517 157.700,58.595 158.103,58.687 157.495 C 58.779 156.886,58.777 155.986,58.682 155.495 C 58.587 155.003,58.511 155.500,58.514 156.600 M58.524 175.400 C 58.526 176.720,58.601 177.212,58.690 176.493 C 58.779 175.774,58.777 174.694,58.686 174.093 C 58.595 173.492,58.522 174.080,58.524 175.400 M182.328 211.900 C 181.465 212.912,178.559 218.184,175.436 224.400 C 173.945 227.370,172.572 230.070,172.386 230.400 C 172.199 230.730,171.307 232.620,170.403 234.600 C 169.499 236.580,168.408 238.965,167.980 239.900 C 166.513 243.098,165.683 245.001,164.794 247.200 C 164.304 248.410,163.566 250.140,163.152 251.044 C 162.738 251.948,162.400 252.910,162.400 253.182 C 162.400 253.454,162.132 254.154,161.805 254.738 C 160.808 256.519,159.017 262.125,157.951 266.800 C 157.725 267.790,157.245 269.770,156.883 271.200 C 151.517 292.408,172.425 311.113,192.800 303.333 C 195.341 302.363,195.791 302.119,199.063 299.941 C 206.355 295.087,211.073 284.467,209.949 275.439 C 209.203 269.449,206.048 257.881,203.828 253.000 C 203.528 252.340,202.882 250.810,202.393 249.600 C 201.904 248.390,201.166 246.660,200.752 245.756 C 200.338 244.852,200.000 244.008,200.000 243.880 C 200.000 243.609,197.364 237.844,195.392 233.800 C 194.640 232.260,193.840 230.550,193.614 230.000 C 193.387 229.450,193.021 228.730,192.801 228.400 C 192.580 228.070,192.215 227.350,191.990 226.800 C 191.627 225.915,190.107 222.997,185.218 213.800 C 183.763 211.063,183.300 210.759,182.328 211.900 M249.886 279.700 C 249.521 280.415,248.415 282.440,247.427 284.200 C 245.609 287.438,238.006 302.603,236.447 306.100 C 235.247 308.791,234.009 311.600,233.406 313.000 C 231.110 318.324,230.631 319.167,229.836 319.281 C 229.335 319.352,228.951 319.744,228.878 320.259 C 228.810 320.732,228.403 321.210,227.973 321.323 C 227.326 321.492,227.203 321.845,227.260 323.369 C 227.314 324.788,227.125 325.429,226.433 326.165 C 225.940 326.690,225.571 327.453,225.614 327.860 C 225.788 329.513,225.574 330.400,225.000 330.400 C 224.514 330.400,224.400 331.042,224.400 333.776 C 224.400 335.897,224.228 337.259,223.938 337.438 C 223.652 337.615,223.585 337.548,223.762 337.262 C 223.931 336.988,223.793 336.800,223.424 336.800 C 222.878 336.800,222.800 337.882,222.800 345.447 C 222.800 353.896,222.818 354.089,223.600 353.884 C 224.333 353.692,224.400 353.872,224.400 356.037 C 224.400 357.871,224.534 358.400,225.000 358.400 C 225.330 358.400,225.621 358.625,225.646 358.900 C 225.672 359.175,225.734 359.580,225.785 359.800 C 225.836 360.020,225.906 360.515,225.939 360.900 C 225.973 361.285,226.270 361.600,226.600 361.600 C 226.933 361.600,227.200 361.956,227.200 362.400 C 227.200 362.933,227.467 363.200,228.000 363.200 C 228.533 363.200,228.800 363.467,228.800 364.000 C 228.800 364.533,229.067 364.800,229.600 364.800 C 230.133 364.800,230.400 365.067,230.400 365.600 C 230.400 366.133,230.667 366.400,231.200 366.400 C 231.733 366.400,232.000 366.667,232.000 367.200 C 232.000 367.733,232.267 368.000,232.800 368.000 C 233.333 368.000,233.600 368.267,233.600 368.800 C 233.600 369.317,233.867 369.600,234.353 369.600 C 234.770 369.600,235.200 369.957,235.316 370.400 C 235.475 371.006,235.862 371.200,236.916 371.200 C 237.970 371.200,238.357 371.394,238.516 372.000 C 238.690 372.667,239.062 372.800,240.743 372.800 C 242.248 372.800,242.860 372.978,243.152 373.500 C 243.789 374.640,257.321 374.733,258.113 373.603 C 258.526 373.013,259.186 372.801,260.785 372.744 C 262.472 372.685,262.949 372.518,263.101 371.935 C 263.275 371.271,264.090 371.025,265.900 371.093 C 266.175 371.103,266.400 370.771,266.400 370.356 C 266.400 369.678,266.827 369.415,267.700 369.553 C 267.865 369.579,268.000 369.240,268.000 368.800 C 268.000 368.054,268.721 367.781,270.235 367.955 C 270.474 367.983,270.879 367.544,271.136 366.980 C 271.393 366.416,271.779 366.064,271.994 366.196 C 272.210 366.330,272.497 365.731,272.638 364.854 C 272.811 363.770,273.130 363.207,273.646 363.072 C 274.061 362.964,274.400 362.588,274.400 362.237 C 274.400 361.887,274.670 361.600,275.000 361.600 C 275.433 361.600,275.600 361.156,275.600 360.000 C 275.600 358.667,275.733 358.400,276.400 358.400 C 277.042 358.400,277.200 358.133,277.200 357.047 C 277.200 356.030,277.399 355.641,278.000 355.484 C 278.771 355.283,278.800 354.938,278.800 346.037 C 278.800 337.067,278.777 336.800,278.000 336.800 C 277.280 336.800,276.770 333.124,277.153 330.700 C 277.179 330.535,277.065 330.421,276.900 330.447 C 275.745 330.630,275.600 330.285,275.600 327.353 C 275.600 324.572,275.535 324.324,274.851 324.503 C 274.276 324.653,274.147 324.525,274.296 323.956 C 274.591 322.825,274.059 321.200,273.392 321.200 C 273.067 321.200,272.800 320.850,272.800 320.422 C 272.800 319.987,272.345 319.413,271.770 319.122 C 271.096 318.780,270.393 317.771,269.734 316.200 C 269.181 314.880,268.409 313.080,268.019 312.200 C 267.628 311.320,267.030 309.970,266.689 309.200 C 264.296 303.792,259.393 293.347,258.803 292.400 C 258.597 292.070,257.815 290.630,257.064 289.200 C 251.202 278.026,250.926 277.659,249.886 279.700 M121.751 292.865 C 121.285 293.091,120.565 293.969,120.151 294.815 C 111.916 311.683,107.515 319.600,106.373 319.600 C 105.738 319.600,105.600 319.885,105.600 321.200 C 105.600 322.533,105.467 322.800,104.800 322.800 C 104.148 322.800,104.000 323.067,104.000 324.237 C 104.000 325.338,103.813 325.724,103.200 325.884 C 102.599 326.041,102.400 326.430,102.400 327.447 C 102.400 328.191,102.220 328.800,102.000 328.800 C 101.780 328.800,101.621 328.935,101.647 329.100 C 101.773 329.898,101.546 330.139,101.177 329.600 C 100.812 329.067,100.774 329.067,100.831 329.600 C 101.092 332.051,100.771 333.600,100.000 333.600 C 99.337 333.600,99.200 333.867,99.200 335.153 C 99.200 336.370,99.027 336.752,98.400 336.916 C 97.723 337.093,97.600 337.462,97.600 339.316 C 97.600 341.153,97.474 341.540,96.818 341.711 C 96.147 341.887,96.020 342.330,95.918 344.858 C 95.834 346.950,95.656 347.771,95.300 347.700 C 95.025 347.645,94.771 347.780,94.736 348.000 C 94.624 348.693,94.473 351.522,94.436 353.600 C 94.411 354.982,94.235 355.600,93.867 355.600 C 93.573 355.600,93.312 355.825,93.286 356.100 C 93.260 356.375,93.116 357.713,92.966 359.073 C 92.816 360.433,92.836 361.873,93.010 362.273 C 93.184 362.673,93.282 363.261,93.227 363.579 C 93.173 363.898,93.410 364.364,93.753 364.615 C 94.156 364.910,94.438 365.911,94.546 367.436 C 94.638 368.736,94.733 370.025,94.757 370.300 C 94.781 370.575,95.070 370.800,95.400 370.800 C 95.822 370.800,96.000 371.226,96.000 372.237 C 96.000 373.338,96.187 373.724,96.800 373.884 C 97.243 374.000,97.600 374.430,97.600 374.847 C 97.600 375.333,97.883 375.600,98.400 375.600 C 98.933 375.600,99.200 375.867,99.200 376.400 C 99.200 376.925,99.467 377.200,99.976 377.200 C 100.580 377.200,100.779 377.525,100.876 378.662 C 100.979 379.876,101.170 380.149,102.000 380.266 C 102.550 380.343,103.299 380.765,103.664 381.203 C 104.029 381.641,104.614 382.000,104.964 382.000 C 105.333 382.000,105.600 382.335,105.600 382.800 C 105.600 383.333,105.867 383.600,106.400 383.600 C 106.938 383.600,107.200 383.867,107.200 384.415 C 107.200 385.017,107.436 385.210,108.100 385.153 C 109.977 384.992,110.778 385.191,110.559 385.764 C 110.357 386.288,111.423 386.916,112.259 386.766 C 113.798 386.491,116.400 386.872,116.400 387.373 C 116.400 388.266,117.670 388.470,122.512 388.354 C 127.886 388.225,128.800 388.080,128.800 387.353 C 128.800 386.982,129.292 386.798,130.300 386.795 C 132.389 386.787,133.600 386.405,133.600 385.753 C 133.600 385.372,134.111 385.200,135.247 385.200 C 136.696 385.200,136.868 385.104,136.684 384.400 C 136.504 383.713,136.672 383.600,137.875 383.600 C 138.938 383.600,139.325 383.408,139.484 382.800 C 139.600 382.357,140.030 382.000,140.447 382.000 C 140.933 382.000,141.200 381.717,141.200 381.200 C 141.200 380.667,141.467 380.400,142.000 380.400 C 142.533 380.400,142.800 380.133,142.800 379.600 C 142.800 379.076,143.067 378.800,143.572 378.800 C 144.068 378.800,144.390 378.478,144.472 377.900 C 144.558 377.296,144.832 377.039,145.306 377.119 C 145.695 377.184,145.988 377.094,145.959 376.919 C 145.738 375.605,146.094 374.424,146.777 374.207 C 147.327 374.033,147.590 373.528,147.677 372.480 C 147.770 371.357,147.969 371.013,148.500 371.056 C 149.094 371.103,149.200 370.753,149.200 368.756 C 149.200 366.889,149.329 366.400,149.824 366.400 C 150.167 366.400,150.344 366.232,150.217 366.028 C 150.091 365.823,150.153 365.553,150.355 365.428 C 151.199 364.906,150.899 353.699,150.016 352.816 C 149.348 352.148,149.200 351.486,149.200 349.163 C 149.200 346.662,149.105 346.300,148.400 346.116 C 147.637 345.916,147.288 343.651,147.572 340.741 C 147.612 340.333,147.364 340.105,146.918 340.141 C 146.348 340.188,146.175 339.850,146.077 338.500 C 145.978 337.126,145.805 336.800,145.177 336.800 C 144.494 336.800,144.400 336.510,144.400 334.400 C 144.400 332.267,144.311 332.000,143.600 332.000 C 142.933 332.000,142.800 331.733,142.800 330.400 C 142.800 329.309,142.625 328.800,142.250 328.800 C 141.696 328.800,141.200 327.149,141.200 325.307 C 141.200 324.589,141.034 324.378,140.600 324.545 C 140.127 324.726,140.000 324.430,140.000 323.150 C 140.000 321.877,139.832 321.481,139.222 321.322 C 138.795 321.210,138.390 320.732,138.322 320.259 C 138.246 319.725,137.864 319.352,137.311 319.274 C 136.583 319.170,135.463 317.235,131.172 308.674 C 128.285 302.913,125.498 297.480,124.978 296.600 C 124.458 295.720,123.764 294.415,123.437 293.700 C 123.109 292.985,122.787 292.412,122.720 292.427 C 122.654 292.442,122.218 292.639,121.751 292.865 " stroke="none" fill="#64a4d4" fill-rule="evenodd"></path><path id="path3" d="M187.052 105.400 C 187.162 106.315,188.238 107.604,191.584 110.831 C 195.483 114.591,198.592 118.107,200.400 120.800 C 200.730 121.291,201.687 122.568,202.527 123.638 C 204.108 125.651,206.000 128.931,206.000 129.658 C 206.000 129.887,206.360 130.531,206.800 131.091 C 207.240 131.650,207.600 132.422,207.600 132.805 C 207.600 133.188,207.851 133.710,208.158 133.965 C 208.465 134.220,208.827 135.020,208.963 135.742 C 209.250 137.272,211.351 139.093,212.124 138.482 C 212.386 138.274,213.462 138.012,214.516 137.900 C 215.570 137.787,216.754 137.403,217.148 137.047 C 217.541 136.691,218.391 136.400,219.037 136.400 C 219.683 136.400,220.839 136.067,221.606 135.660 C 222.855 134.997,228.485 134.443,235.600 134.284 C 239.745 134.191,247.976 135.009,249.398 135.654 C 250.279 136.055,251.676 136.386,252.501 136.391 C 253.327 136.396,254.675 136.760,255.496 137.200 C 256.316 137.640,257.284 138.000,257.645 138.000 C 258.006 138.000,258.517 138.258,258.779 138.574 C 259.041 138.890,259.828 139.270,260.528 139.419 C 261.227 139.567,262.070 139.918,262.400 140.197 C 262.730 140.477,263.450 140.839,264.000 141.001 C 264.550 141.164,265.750 141.906,266.667 142.649 C 267.584 143.392,268.516 144.000,268.739 144.000 C 268.961 144.000,269.381 144.237,269.671 144.526 C 269.962 144.815,270.494 145.220,270.853 145.426 C 271.720 145.923,274.897 148.632,276.805 150.500 C 277.648 151.325,278.531 152.000,278.769 152.000 C 279.006 152.000,279.200 152.242,279.200 152.538 C 279.200 152.834,279.560 153.402,280.000 153.800 C 280.440 154.198,280.800 154.721,280.800 154.962 C 280.800 155.203,281.475 156.148,282.300 157.063 C 284.227 159.198,286.822 163.761,288.975 168.800 C 289.116 169.130,289.492 169.850,289.810 170.400 C 290.128 170.950,290.391 171.822,290.394 172.338 C 290.397 172.854,290.659 173.754,290.976 174.338 C 291.293 174.922,291.663 176.085,291.798 176.922 C 292.288 179.948,297.287 181.154,300.903 179.120 C 302.233 178.372,318.027 178.393,318.932 179.143 C 319.292 179.442,320.895 179.834,322.493 180.014 C 324.092 180.194,325.940 180.623,326.600 180.968 C 327.260 181.313,328.250 181.602,328.800 181.611 C 329.350 181.620,330.520 181.975,331.400 182.400 C 332.280 182.825,333.360 183.180,333.800 183.189 C 334.240 183.198,335.140 183.563,335.800 184.000 C 336.460 184.437,337.332 184.796,337.737 184.797 C 338.142 184.799,338.931 185.160,339.491 185.600 C 340.050 186.040,340.833 186.400,341.230 186.400 C 341.628 186.400,342.064 186.580,342.200 186.800 C 342.336 187.020,343.292 187.185,344.324 187.166 L 346.200 187.132 344.200 186.636 C 342.443 186.201,338.804 184.712,336.685 183.562 C 336.292 183.349,334.492 182.717,332.685 182.158 C 330.878 181.599,328.966 180.966,328.436 180.750 C 327.546 180.389,322.292 179.200,318.000 178.388 C 315.606 177.935,305.808 177.950,301.800 178.412 C 292.787 179.451,293.011 179.516,292.078 175.594 C 290.866 170.496,286.902 162.060,283.846 158.075 C 282.718 156.604,281.502 154.943,281.143 154.384 C 279.495 151.815,273.554 146.439,268.873 143.282 C 264.906 140.607,255.322 136.013,253.690 136.005 C 253.190 136.002,251.782 135.649,250.563 135.221 C 242.303 132.317,225.422 133.108,215.965 136.842 C 212.695 138.133,209.600 137.663,209.600 135.877 C 209.600 135.468,208.520 133.081,206.166 128.291 C 204.065 124.015,197.408 115.527,192.063 110.307 C 189.420 107.725,187.179 105.295,187.083 104.907 C 186.987 104.518,186.973 104.740,187.052 105.400 " stroke="none" fill="#c4d4ac" fill-rule="evenodd"></path><path id="path4" d="M187.200 104.755 C 187.200 105.253,189.032 107.346,192.034 110.279 C 197.408 115.527,204.059 124.005,206.166 128.291 C 208.520 133.081,209.600 135.468,209.600 135.877 C 209.600 137.663,212.695 138.133,215.965 136.842 C 225.422 133.108,242.303 132.317,250.563 135.221 C 251.782 135.649,253.190 136.002,253.690 136.005 C 255.322 136.013,264.906 140.607,268.873 143.282 C 273.554 146.439,279.495 151.815,281.143 154.384 C 281.502 154.943,282.718 156.604,283.846 158.075 C 286.902 162.060,290.866 170.496,292.078 175.594 C 293.011 179.516,292.787 179.451,301.800 178.412 C 305.808 177.950,315.606 177.935,318.000 178.388 C 322.292 179.200,327.546 180.389,328.436 180.750 C 328.966 180.966,330.878 181.599,332.685 182.158 C 334.492 182.717,336.292 183.349,336.685 183.562 C 340.739 185.763,346.000 187.423,346.000 186.502 C 346.000 186.282,345.247 185.982,344.326 185.835 C 343.406 185.687,341.174 184.854,339.366 183.984 C 337.558 183.113,335.831 182.400,335.528 182.400 C 335.226 182.400,334.601 182.136,334.140 181.813 C 333.679 181.490,332.514 181.102,331.551 180.950 C 330.588 180.799,329.440 180.444,329.000 180.161 C 328.560 179.879,327.210 179.518,326.000 179.360 C 324.790 179.202,323.179 178.814,322.419 178.497 C 319.695 177.362,304.671 177.183,296.374 178.187 C 294.021 178.472,292.914 177.425,292.447 174.474 C 292.270 173.351,291.933 172.200,291.698 171.916 C 291.464 171.632,291.147 170.731,290.994 169.914 C 290.841 169.097,290.465 168.220,290.158 167.965 C 289.851 167.710,289.600 167.281,289.600 167.011 C 289.600 166.740,289.150 165.673,288.600 164.638 C 288.050 163.604,287.600 162.595,287.600 162.397 C 287.600 159.568,270.756 142.000,268.044 142.000 C 267.868 142.000,267.437 141.685,267.087 141.300 C 266.466 140.619,264.886 139.759,261.200 138.098 C 260.210 137.652,258.570 136.907,257.556 136.443 C 256.542 135.980,255.321 135.600,254.843 135.600 C 254.365 135.600,253.330 135.331,252.542 135.001 C 251.754 134.672,250.095 134.223,248.855 134.004 C 247.615 133.785,245.700 133.410,244.600 133.171 C 241.373 132.469,231.116 132.566,227.256 133.334 C 225.417 133.700,223.347 134.006,222.656 134.014 C 221.965 134.021,220.680 134.375,219.800 134.800 C 218.920 135.225,217.794 135.579,217.299 135.586 C 216.803 135.594,215.725 135.960,214.904 136.400 C 212.677 137.594,210.000 136.830,210.000 135.001 C 210.000 134.809,209.660 133.921,209.244 133.026 C 206.253 126.588,205.428 125.083,203.817 123.126 C 202.818 121.912,202.000 120.788,202.000 120.628 C 202.000 120.468,200.880 118.956,199.511 117.269 C 197.284 114.524,195.827 113.022,189.700 107.162 C 188.765 106.268,188.000 105.291,188.000 104.992 C 188.000 104.692,187.820 104.336,187.600 104.200 C 187.380 104.064,187.200 104.314,187.200 104.755 " stroke="none" fill="#d4d47c" fill-rule="evenodd"></path></g></svg>